[Header]
FileType HTR
DataType HTRS
FileVersion 1
NumSegments 64
NumFrames 3
DataFrameRate 24
EulerRotationOrder ZYX
CalibrationUnits mm
RotationUnits Degrees
GlobalAxisofGravity Y
BoneLengthAxis Y
ScaleFactor 1.0
[SegmentNames&Hierarchy]
Hips	GLOBAL
Spine	Hips
Spine1	Spine
Spine2	Spine1
Neck	Spine2
Head	Neck
LeftEye	Head
RightEye	Head
LeftShoulder	Spine2
LeftArm	LeftShoulder
LeftForeArm	LeftArm
LeftHand	LeftForeArm
LeftHandThumb1	LeftHand
LeftHandThumb2	LeftHandThumb1
LeftHandThumb3	LeftHandThumb2
LeftHandThumb4	LeftHandThumb3
LeftHandIndex1	LeftHand
LeftHandIndex2	LeftHandIndex1
LeftHandIndex3	LeftHandIndex2
LeftHandIndex4	LeftHandIndex3
LeftHandMiddle1	LeftHand
LeftHandMiddle2	LeftHandMiddle1
LeftHandMiddle3	LeftHandMiddle2
LeftHandMiddle4	LeftHandMiddle3
LeftHandRing1	LeftHand
LeftHandRing2	LeftHandRing1
LeftHandRing3	LeftHandRing2
LeftHandRing4	LeftHandRing3
LeftHandPinky1	LeftHand
LeftHandPinky2	LeftHandPinky1
LeftHandPinky3	LeftHandPinky2
LeftHandPinky4	LeftHandPinky3
RightShoulder	Spine2
RightArm	RightShoulder
RightForeArm	RightArm
RightHand	RightForeArm
RightHandPinky1	RightHand
RightHandPinky2	RightHandPinky1
RightHandPinky3	RightHandPinky2
RightHandPinky4	RightHandPinky3
RightHandRing1	RightHand
RightHandRing2	RightHandRing1
RightHandRing3	RightHandRing2
RightHandRing4	RightHandRing3
RightHandMiddle1	RightHand
RightHandMiddle2	RightHandMiddle1
RightHandMiddle3	RightHandMiddle2
RightHandMiddle4	RightHandMiddle3
RightHandIndex1	RightHand
RightHandIndex2	RightHandIndex1
RightHandIndex3	RightHandIndex2
RightHandIndex4	RightHandIndex3
RightHandThumb1	RightHand
RightHandThumb2	RightHandThumb1
RightHandThumb3	RightHandThumb2
RightHandThumb4	RightHandThumb3
LeftUpLeg	Hips
LeftLeg	LeftUpLeg
LeftFoot	LeftLeg
LeftToeBase	LeftFoot
RightUpLeg	Hips
RightLeg	RightUpLeg
RightFoot	RightLeg
RightToeBase	RightFoot
[BasePosition]
Hips	0	0	0	0	0	0	1
Spine	0	0	0	0	0	0	1
Spine1	0	0	0	0	0	0	1
Spine2	0	0	0	0	0	0	1
Neck	0	0	0	0	0	0	1
Head	0	0	0	0	0	0	1
LeftEye	0	0	0	0	0	0	1
RightEye	0	0	0	0	0	0	1
LeftShoulder	0	0	0	0	0	0	1
LeftArm	0	0	0	0	0	0	1
LeftForeArm	0	0	0	0	0	0	1
LeftHand	0	0	0	0	0	0	1
LeftHandThumb1	0	0	0	0	0	0	1
LeftHandThumb2	0	0	0	0	0	0	1
LeftHandThumb3	0	0	0	0	0	0	1
LeftHandThumb4	0	0	0	0	0	0	1
LeftHandIndex1	0	0	0	0	0	0	1
LeftHandIndex2	0	0	0	0	0	0	1
LeftHandIndex3	0	0	0	0	0	0	1
LeftHandIndex4	0	0	0	0	0	0	1
LeftHandMiddle1	0	0	0	0	0	0	1
LeftHandMiddle2	0	0	0	0	0	0	1
LeftHandMiddle3	0	0	0	0	0	0	1
LeftHandMiddle4	0	0	0	0	0	0	1
LeftHandRing1	0	0	0	0	0	0	1
LeftHandRing2	0	0	0	0	0	0	1
LeftHandRing3	0	0	0	0	0	0	1
LeftHandRing4	0	0	0	0	0	0	1
LeftHandPinky1	0	0	0	0	0	0	1
LeftHandPinky2	0	0	0	0	0	0	1
LeftHandPinky3	0	0	0	0	0	0	1
LeftHandPinky4	0	0	0	0	0	0	1
RightShoulder	0	0	0	0	0	0	1
RightArm	0	0	0	0	0	0	1
RightForeArm	0	0	0	0	0	0	1
RightHand	0	0	0	0	0	0	1
RightHandPinky1	0	0	0	0	0	0	1
RightHandPinky2	0	0	0	0	0	0	1
RightHandPinky3	0	0	0	0	0	0	1
RightHandPinky4	0	0	0	0	0	0	1
RightHandRing1	0	0	0	0	0	0	1
RightHandRing2	0	0	0	0	0	0	1
RightHandRing3	0	0	0	0	0	0	1
RightHandRing4	0	0	0	0	0	0	1
RightHandMiddle1	0	0	0	0	0	0	1
RightHandMiddle2	0	0	0	0	0	0	1
RightHandMiddle3	0	0	0	0	0	0	1
RightHandMiddle4	0	0	0	0	0	0	1
RightHandIndex1	0	0	0	0	0	0	1
RightHandIndex2	0	0	0	0	0	0	1
RightHandIndex3	0	0	0	0	0	0	1
RightHandIndex4	0	0	0	0	0	0	1
RightHandThumb1	0	0	0	0	0	0	1
RightHandThumb2	0	0	0	0	0	0	1
RightHandThumb3	0	0	0	0	0	0	1
RightHandThumb4	0	0	0	0	0	0	1
LeftUpLeg	0	0	0	0	0	0	1
LeftLeg	0	0	0	0	0	0	1
LeftFoot	0	0	0	0	0	0	1
LeftToeBase	0	0	0	0	0	0	1
RightUpLeg	0	0	0	0	0	0	1
RightLeg	0	0	0	0	0	0	1
RightFoot	0	0	0	0	0	0	1
RightToeBase	0	0	0	0	0	0	1
[Hips]
17	-26.72260094	1029.880127	-70.01122284	-12.04212189	60.6143074	-8.509120941	1.0
18	-13.96763802	1028.899414	-50.7991333	-16.03639221	68.58313751	-12.470191	1.0
19	-1.939089298	1027.58252	-33.04767227	-20.17906189	73.86795044	-16.6182251	1.0
[Spine]
17	0	101.8159943	1.315000057	4.251808643	1.769392848	2.158578873	1.0
18	0	101.8159943	1.315000057	4.133461475	1.284551978	1.720111847	1.0
19	0	101.8159943	1.315000057	3.905323744	0.9286472201	1.376377463	1.0
[Spine1]
17	0	100.8349991	-10.00800037	1.587792754	1.388965368	4.009181023	1.0
18	0	100.8349991	-10.00800037	1.397626638	0.614397645	3.379968166	1.0
19	0	100.8349991	-10.00800037	1.267410398	0.1587251723	2.802110434	1.0
[Spine2]
17	0	91	-13.73399925	1.582949638	1.122588515	1.228644252	1.0
18	0	91	-13.73399925	1.397306561	0.4229450524	1.400781989	1.0
19	0	91	-13.73399925	1.260245204	0.05851347744	1.606130958	1.0
[Neck]
17	0	166.7169952	-25.16200066	6.323049068	2.907623768	0.02480833791	1.0
18	0	166.7169952	-25.16200066	5.93407011	1.819753289	0.3543977439	1.0
19	0	166.7169952	-25.16200066	5.700983524	0.9384198189	0.5252164006	1.0
[Head]
17	0	96.17900085	16.84999847	-5.304138184	14.03135014	-6.139683247	1.0
18	0	96.17900085	16.84999847	-5.991195679	10.39484024	-4.319394588	1.0
19	0	96.17900085	16.84999847	-6.609470367	7.043025494	-2.743613482	1.0
[LeftEye]
17	30.6760006	64.09500122	92.83599854	0	0	0	1.0
18	30.6760006	64.09500122	92.83599854	0	0	0	1.0
19	30.6760006	64.09500122	92.83599854	0	0	0	1.0
[RightEye]
17	-30.6760006	64.09500122	92.83499908	0	0	0	1.0
18	-30.6760006	64.09500122	92.83499908	0	0	0	1.0
19	-30.6760006	64.09500122	92.83499908	0	0	0	1.0
[LeftShoulder]
17	45.70400238	109.4599991	-26.28000069	7.187433243	-4.56728363	-21.44941902	1.0
18	45.70400238	109.4599991	-26.28000069	6.965743542	-5.856761932	-19.53189659	1.0
19	45.70400238	109.4599991	-26.28000069	6.567287445	-8.000264168	-17.3557663	1.0
[LeftArm]
17	105.923996	-5.24600029	-22.32099915	24.99199486	0.02098934352	-61.6358757	1.0
18	105.923996	-5.24600029	-22.32099915	24.73402596	-0.7636855841	-63.45100403	1.0
19	105.923996	-5.24600029	-22.32099915	23.73060989	-1.194372416	-65.66572571	1.0
[LeftForeArm]
17	278.414978	-0.0009999999311	0	1.765160505e-06	-15.98762989	-0.0002054689394	1.0
18	278.414978	-0.0009999999311	0	2.378979843e-06	-12.68707275	-0.0002152622474	1.0
19	278.414978	-0.0009999999311	0	-8.710248949e-07	-9.205253601	-0.0001973492181	1.0
[LeftHand]
17	283.2879944	0	0	-36.77606964	-4.452340126	15.24146748	1.0
18	283.2879944	0	0	-38.31758118	-3.720150471	12.67226887	1.0
19	283.2879944	0	0	-38.17289352	-3.102087021	8.377784729	1.0
[LeftHandThumb1]
17	24.6609993	-15.75	26.8239994	-0.4889881611	2.201389551	4.818526268	1.0
18	24.6609993	-15.75	26.8239994	-0.4889881611	2.201389551	4.818526268	1.0
19	24.6609993	-15.75	26.8239994	-0.4889881611	2.201389551	4.818526268	1.0
[LeftHandThumb2]
17	32.29800034	-18.64699936	18.64699936	18.52788544	17.47868156	21.85512733	1.0
18	32.29800034	-18.64699936	18.64699936	18.59428596	18.17752647	22.13188744	1.0
19	32.29800034	-18.64699936	18.64699936	18.53555107	18.6238308	22.28211212	1.0
[LeftHandThumb3]
17	26.52600098	-15.31499958	15.31499958	-13.05657959	5.988419056	7.629725456	1.0
18	26.52600098	-15.31499958	15.31499958	-13.05359459	5.993267536	7.699808121	1.0
19	26.52600098	-15.31499958	15.31499958	-13.05958271	6.050843716	7.733843803	1.0
[LeftHandThumb4]
17	19.54599953	-11.28499985	11.28499985	0	0	0	1.0
18	19.54599953	-11.28499985	11.28499985	0	0	0	1.0
19	19.54599953	-11.28499985	11.28499985	0	0	0	1.0
[LeftHandIndex1]
17	91.09299469	-5.170999527	22.60099792	0.1164224669	-1.099476814	-7.237863064	1.0
18	91.09299469	-5.170999527	22.60099792	0.1106297597	-1.113956928	-7.217890739	1.0
19	91.09299469	-5.170999527	22.60099792	0.1065872684	-1.141389012	-7.155369282	1.0
[LeftHandIndex2]
17	36.76399994	0	0	-0.2668952048	1.74580133	-17.38308716	1.0
18	36.76399994	0	0	-0.2669142485	1.745816827	-17.38310623	1.0
19	36.76399994	0	0	-0.2668941319	1.745827198	-17.38310623	1.0
[LeftHandIndex3]
17	28.83100128	0	0	-0.05752364919	0.8180156946	-8.04500103	1.0
18	28.83100128	0	0	-0.0575292632	0.8180125356	-8.04500103	1.0
19	28.83100128	0	0	-0.05752678216	0.8179929256	-8.044989586	1.0
[LeftHandIndex4]
17	23.92700005	0	0	0	0	0	1.0
18	23.92700005	0	0	0	0	0	1.0
19	23.92700005	0	0	0	0	0	1.0
[LeftHandMiddle1]
17	95.33399963	0	0	-0.7665325999	2.759095192	-15.29704952	1.0
18	95.33399963	0	0	-0.7663815022	2.660358667	-15.29743099	1.0
19	95.33399963	0	0	-0.7644062638	2.594707966	-15.2695322	1.0
[LeftHandMiddle2]
17	36.98199844	0	0	-0.2656013072	1.741645694	-17.34009361	1.0
18	36.98199844	0	0	-0.2655714154	1.741568923	-17.33944321	1.0
19	36.98199844	0	0	-0.2656781077	1.741869211	-17.34254646	1.0
[LeftHandMiddle3]
17	29.50900078	0	0	-0.2970469594	1.839293003	-18.34683418	1.0
18	29.50900078	0	0	-0.2970631123	1.839309454	-18.34692192	1.0
19	29.50900078	0	0	-0.2971702516	1.839675546	-18.35056686	1.0
[LeftHandMiddle4]
17	28.3390007	0	0	0	0	0	1.0
18	28.3390007	0	0	0	0	0	1.0
19	28.3390007	0	0	0	0	0	1.0
[LeftHandRing1]
17	91.04499817	-0.4390000105	-18.65100098	-1.170084596	3.220617056	-20.97276497	1.0
18	91.04499817	-0.4390000105	-18.65100098	-1.170605063	3.253249645	-20.97903442	1.0
19	91.04499817	-0.4390000105	-18.65100098	-1.170274496	3.245788574	-20.97472382	1.0
[LeftHandRing2]
17	31.54000092	0	0	-0.3817969561	2.077320099	-20.82633781	1.0
18	31.54000092	0	0	-0.3827135563	2.079748392	-20.85194397	1.0
19	31.54000092	0	0	-0.383089304	2.080721617	-20.86202431	1.0
[LeftHandRing3]
17	29.37700081	0	0	-0.2791410387	1.784440756	-17.78055191	1.0
18	29.37700081	0	0	-0.2799451947	1.786911368	-17.80599976	1.0
19	29.37700081	0	0	-0.2802549303	1.787902951	-17.81611443	1.0
[LeftHandRing4]
17	26.47500038	0	0	0	0	0	1.0
18	26.47500038	0	0	0	0	0	1.0
19	26.47500038	0	0	0	0	0	1.0
[LeftHandPinky1]
17	80.77799988	-4.887000084	-38.06099701	-1.640489936	5.775947571	-26.70504761	1.0
18	80.77799988	-4.887000084	-38.06099701	-1.652670264	5.676913738	-26.81204987	1.0
19	80.77799988	-4.887000084	-38.06099701	-1.661503196	5.607815266	-26.86589622	1.0
[LeftHandPinky2]
17	36	0	0	-0.2663024664	1.743878365	-17.36329842	1.0
18	36	0	0	-0.2667634785	1.745361805	-17.37850189	1.0
19	36	0	0	-0.2668933868	1.745785952	-17.38279915	1.0
[LeftHandPinky3]
17	21.14200211	0	0	-0.2396634072	1.656351566	-16.46547318	1.0
18	21.14200211	0	0	-0.2400880456	1.657758355	-16.4801178	1.0
19	21.14200211	0	0	-0.2402044088	1.658154607	-16.48397827	1.0
[LeftHandPinky4]
17	19.75699997	0	0	0	0	0	1.0
18	19.75699997	0	0	0	0	0	1.0
19	19.75699997	0	0	0	0	0	1.0
[RightShoulder]
17	-45.70000076	109.4620056	-26.28000069	5.057855129	13.95342827	16.02836037	1.0
18	-45.70000076	109.4620056	-26.28000069	5.088200569	14.05178738	16.08357811	1.0
19	-45.70000076	109.4620056	-26.28000069	5.107732773	14.12844753	16.05358887	1.0
[RightArm]
17	-105.9280014	-5.248000145	-22.32099915	26.48060799	-3.535838842	54.02571487	1.0
18	-105.9280014	-5.248000145	-22.32099915	27.39608192	-1.29782784	56.88268661	1.0
19	-105.9280014	-5.248000145	-22.32099915	28.30205536	0.5385309458	59.54685593	1.0
[RightForeArm]
17	-278.414978	0	0	-1.310320749e-05	11.47536087	-3.078192321e-06	1.0
18	-278.414978	0	0	5.997279914e-06	10.27904892	1.134644481e-05	1.0
19	-278.414978	0	0	7.955014553e-06	8.977392197	6.171067071e-06	1.0
[RightHand]
17	-283.2879944	0	0.0009999999311	-24.23795128	-6.522056103	7.002306461	1.0
18	-283.2879944	0	0.0009999999311	-22.43922043	-3.800814867	7.070242405	1.0
19	-283.2879944	0	0.0009999999311	-20.90700722	-1.315022349	7.129919529	1.0
[RightHandPinky1]
17	-80.76699829	-4.885000229	-38.06000137	-1.564865708	-4.524766922	26.84093285	1.0
18	-80.76699829	-4.885000229	-38.06000137	-1.566905618	-4.51755619	26.84449005	1.0
19	-80.76699829	-4.885000229	-38.06000137	-1.580100536	-4.458969593	26.87194633	1.0
[RightHandPinky2]
17	-36	0	0.0009999999311	-0.2127917111	-1.388952017	17.43898582	1.0
18	-36	0	0.0009999999311	-0.2127864957	-1.388986588	17.4389801	1.0
19	-36	0	0.0009999999311	-0.2127851695	-1.388950586	17.43898773	1.0
[RightHandPinky3]
17	-21.14200211	0	0	-0.1918560565	-1.320407629	16.53374672	1.0
18	-21.14200211	0	0	-0.1918494701	-1.320401788	16.5337429	1.0
19	-21.14200211	0	0	-0.1918608099	-1.32039535	16.53373718	1.0
[RightHandPinky4]
17	-19.75699997	0	0	0	0	0	1.0
18	-19.75699997	0	0	0	0	0	1.0
19	-19.75699997	0	0	0	0	0	1.0
[RightHandRing1]
17	-91.03599548	-0.4390000105	-18.65100098	-1.085937977	-2.739645243	21.09569359	1.0
18	-91.03599548	-0.4390000105	-18.65100098	-1.085320354	-2.747566462	21.08628273	1.0
19	-91.03599548	-0.4390000105	-18.65100098	-1.081901431	-2.765822887	21.03447151	1.0
[RightHandRing2]
17	-31.54000092	0	0	-0.3065593541	-1.658435225	20.94510078	1.0
18	-31.54000092	0	0	-0.3065679073	-1.658449531	20.94508362	1.0
19	-31.54000092	0	0	-0.3065701723	-1.658432603	20.94509697	1.0
[RightHandRing3]
17	-29.37700081	0	0	-0.2244422287	-1.42553544	17.89369011	1.0
18	-29.37700081	0	0	-0.2244421989	-1.425547719	17.89370155	1.0
19	-29.37700081	0	0	-0.224440515	-1.42554462	17.89369583	1.0
[RightHandRing4]
17	-26.47500038	0	0	0	0	0	1.0
18	-26.47500038	0	0	0	0	0	1.0
19	-26.47500038	0	0	0	0	0	1.0
[RightHandMiddle1]
17	-95.32500458	0	0	-0.7046525478	-2.247284651	15.06043816	1.0
18	-95.32500458	0	0	-0.7102404833	-2.20973444	15.15496731	1.0
19	-95.32500458	0	0	-0.7131415009	-2.180802584	15.20449829	1.0
[RightHandMiddle2]
17	-36.98199844	0	0	-0.2133134604	-1.390629768	17.44116592	1.0
18	-36.98199844	0	0	-0.2135008574	-1.391209245	17.44854927	1.0
19	-36.98199844	0	0	-0.2136448324	-1.391701579	17.45494843	1.0
[RightHandMiddle3]
17	-29.50900078	0	0	-0.2384900451	-1.470339775	18.44967651	1.0
18	-29.50900078	0	0	-0.2386799306	-1.470917344	18.45728302	1.0
19	-29.50900078	0	0	-0.2388482541	-1.471427798	18.46387482	1.0
[RightHandMiddle4]
17	-28.3390007	0	0.0009999999311	0	0	0	1.0
18	-28.3390007	0	0.0009999999311	0	0	0	1.0
19	-28.3390007	0	0.0009999999311	0	0	0	1.0
[RightHandIndex1]
17	-91.08300018	-5.167999744	22.60099792	0.1649865359	1.172850013	7.554072857	1.0
18	-91.08300018	-5.167999744	22.60099792	0.1553015709	1.185319185	7.58482933	1.0
19	-91.08300018	-5.167999744	22.60099792	0.1514921784	1.202434778	7.524219036	1.0
[RightHandIndex2]
17	-36.76399994	0	0	-0.2124578953	-1.387842536	17.40513992	1.0
18	-36.76399994	0	0	-0.2121974975	-1.387084007	17.39505005	1.0
19	-36.76399994	0	0	-0.2129313201	-1.389407396	17.42502594	1.0
[RightHandIndex3]
17	-28.83100128	0	0	-0.04573344439	-0.6499158144	8.051001549	1.0
18	-28.83100128	0	0	-0.04562298581	-0.6491125226	8.040928841	1.0
19	-28.83100128	0	0	-0.04596533626	-0.6515023708	8.070878029	1.0
[RightHandIndex4]
17	-23.92700005	0	0	0	0	0	1.0
18	-23.92700005	0	0	0	0	0	1.0
19	-23.92700005	0	0	0	0	0	1.0
[RightHandThumb1]
17	-24.64799881	-15.72700024	26.82600021	-1.658465981	-0.2891423702	-4.221325874	1.0
18	-24.64799881	-15.72700024	26.82600021	-1.658465981	-0.2891423702	-4.221325874	1.0
19	-24.64799881	-15.72700024	26.82600021	-1.658465981	-0.2891423702	-4.221325874	1.0
[RightHandThumb2]
17	-32.29800034	-18.64699936	18.64699936	22.83841324	-22.93970108	-23.93011284	1.0
18	-32.29800034	-18.64699936	18.64699936	22.83267212	-23.2307148	-24.0193615	1.0
19	-32.29800034	-18.64699936	18.64699936	22.76332474	-23.42040825	-24.0797863	1.0
[RightHandThumb3]
17	-26.52600098	-15.31399918	15.31399918	-14.50031281	-6.721696854	-11.37254429	1.0
18	-26.52600098	-15.31399918	15.31399918	-14.4959507	-6.717542648	-11.37357903	1.0
19	-26.52600098	-15.31399918	15.31399918	-14.49085903	-6.711411953	-11.3748827	1.0
[RightHandThumb4]
17	-19.54599953	-11.28499985	11.28499985	0	0	0	1.0
18	-19.54599953	-11.28499985	11.28499985	0	0	0	1.0
19	-19.54599953	-11.28499985	11.28499985	0	0	0	1.0
[LeftUpLeg]
17	82.07800293	-67.51699829	-15.99599934	-11.66368389	35.1547699	4.448953629	1.0
18	82.07800293	-67.51699829	-15.99599934	-12.27785969	34.74116135	5.021353245	1.0
19	82.07800293	-67.51699829	-15.99599934	-12.60952091	34.77828979	5.542967319	1.0
[LeftLeg]
17	0	-443.7049866	2.845999956	17.46196747	6.867891312	10.61584663	1.0
18	0	-443.7049866	2.845999956	17.97483444	4.93515873	9.994936943	1.0
19	0	-443.7049866	2.845999956	18.27560806	-0.3197607696	8.059571266	1.0
[LeftFoot]
17	0	-444.2789917	-29.8219986	-0.8431081176	-2.873851299	-5.72208643	1.0
18	0	-444.2789917	-29.8219986	-1.03263092	-8.718606949	-5.79460144	1.0
19	0	-444.2789917	-29.8219986	-1.547384381	-8.736539841	-5.866110802	1.0
[LeftToeBase]
17	0	-87.28699493	107.1060028	-4.92853117	-3.564131839e-05	1.083837674e-06	1.0
18	0	-87.28699493	107.1060028	-4.928527355	-1.913225424e-05	-6.476499834e-07	1.0
19	0	-87.28699493	107.1060028	-4.928526402	1.883066216e-05	4.114364856e-06	1.0
[RightUpLeg]
17	-82.07800293	-67.51699829	-15.99599934	-14.08039665	-7.90223217	4.22557354	1.0
18	-82.07800293	-67.51699829	-15.99599934	-7.517539978	-9.271268845	3.372475386	1.0
19	-82.07800293	-67.51699829	-15.99599934	-4.425234318	-10.21199036	3.190440178	1.0
[RightLeg]
17	0	-443.7049866	2.861999989	25.05770493	1.569321036	-4.967458248	1.0
18	0	-443.7049866	2.861999989	15.30332661	2.128165007	-3.611462593	1.0
19	0	-443.7049866	2.861999989	12.43692207	-0.1048313528	-3.333725452	1.0
[RightFoot]
17	0	-444.2770081	-29.83799934	0.8892443776	-19.85102463	5.801436901	1.0
18	0	-444.2770081	-29.83799934	-1.820377588	-6.079153538	4.837100983	1.0
19	0	-444.2770081	-29.83799934	-3.630634785	-1.375053406	3.989300728	1.0
[RightToeBase]
17	0	-87.28699493	107.1060028	-7.202599049	2.0099209e-05	-6.285334621e-06	1.0
18	0	-87.28699493	107.1060028	-7.258079529	4.803977572e-05	-3.776059884e-06	1.0
19	0	-87.28699493	107.1060028	-7.282875538	-5.973934094e-06	1.071462862e-06	1.0
[EndOfFile]
